<svg xmlns="http://www.w3.org/2000/svg" xmlns:xlink="http://www.w3.org/1999/xlink" xmlns:fi="http://pattern.flaticon.com/" x="0" y="0" width="700" height="350" viewBox="0 0 700 350"><rect x="0px" y="0px" width="100%" height="100%" opacity="1" fill="#ffb1b1"/><defs><path d="M364.861,157.292c-34.4-18.4-88-47.2-140.8-76.8c-2.4-19.2-15.2-35.2-33.6-39.2c3.2-8.8,11.2-22.4,29.6-23.2   c4.8,0,8-4,7.2-8c0-4.8-4-8-8-7.2c-27.2,1.6-40.8,23.2-44.8,39.2c-8,1.6-15.2,4.8-20.8,9.6c-36,16.8-126.4,57.6-140,64   c-6.4,3.2-13.6,10.4-13.6,18.4v187.2c-0.8,7.2,6.4,13.6,15.2,14.4l348,41.6h0.8c8.8,0,16-7.2,16-16v-187.2   C380.061,165.292,372.061,161.292,364.861,157.292z M180.861,55.692c14.4,0,27.2,12,27.2,27.2s-12.8,26.4-27.2,26.4   s-27.2-12-27.2-27.2S165.661,55.692,180.861,55.692z M139.261,73.292c-0.8,3.2-1.6,6.4-1.6,9.6c0,24,19.2,43.2,43.2,43.2   c18.4-0.8,34.4-12.8,40-28.8c32,18.4,72,40,100,56l-280-33.6L139.261,73.292z M357.661,361.292l-336.8-41.6c-3.2,0-4.8-2.4-4.8-4.8   v-51.2c17.6-4,23.2-0.8,29.6,3.2c5.6,3.2,12.8,8,25.6,8c3.2,0,7.2,0,12-0.8c0,0,0,0,0.8,0c0,0,0,0,0.8,0   c20.8-5.6,26.4-2.4,33.6,1.6c5.6,3.2,12.8,8,25.6,8c3.2,0,7.2,0,12-0.8c0,0,0,0,0.8,0c0,0,0,0,0.8,0c20.8-5.6,26.4-2.4,33.6,1.6   c5.6,3.2,12.8,8,25.6,8c3.2,0,7.2,0,12-0.8c0,0,0,0,0.8,0c0,0,0,0,0.8,0c20.8-5.6,26.4-2.4,33.6,1.6c5.6,3.2,12.8,8,25.6,8   c3.2,0,7.2,0,12-0.8c0,0,0,0,0.8,0c0,0,0,0,0.8,0c20.8-5.6,26.4-2.4,33.6,1.6c5.6,3.2,12.8,8,25.6,8l0.8,46.4   C363.261,359.692,360.861,362.092,357.661,361.292z M363.261,292.492c-11.2,0.8-15.2-1.6-20.8-5.6c-10.4-6.4-20.8-10.4-45.6-4   c-15.2,2.4-20-0.8-26.4-4.8c-10.4-6.4-20.8-10.4-45.6-4c-15.2,2.4-20-0.8-26.4-4.8c-10.4-6.4-20.8-10.4-45.6-4   c-15.2,2.4-20-0.8-26.4-4.8c-10.4-6.4-20.8-10.4-45.6-4c-15.2,2.4-20-0.8-26.4-4.8c-9.6-5.6-18.4-9.6-37.6-5.6v-44   c17.6-4,23.2-0.8,29.6,3.2c5.6,3.2,12.8,8,25.6,8c3.2,0,7.2,0,12-0.8c0,0,0,0,0.8,0c0,0,0,0,0.8,0c20.8-5.6,26.4-2.4,33.6,1.6   c5.6,3.2,12.8,8,25.6,8c3.2,0,7.2,0,12-0.8c0,0,0,0,0.8,0c0,0,0,0,0.8,0c20.8-5.6,26.4-2.4,33.6,1.6c5.6,3.2,12.8,8,25.6,8   c3.2,0,7.2,0,12-0.8c0,0,0,0,0.8,0c0,0,0,0,0.8,0c20.8-5.6,26.4-2.4,33.6,1.6c5.6,3.2,12.8,8,25.6,8c3.2,0,7.2,0,12-0.8   c0,0,0,0,0.8,0c0,0,0,0,0.8,0c20.8-5.6,26.4-2.4,33.6,1.6c5.6,3.2,12.8,8,25.6,8V292.492z M363.261,231.692   c-11.2,0.8-16-1.6-21.6-5.6c-10.4-6.4-20.8-10.4-45.6-4c-15.2,2.4-20-0.8-26.4-4.8c-10.4-6.4-20.8-10.4-45.6-4   c-15.2,2.4-20-0.8-26.4-4.8c-10.4-6.4-20.8-10.4-45.6-4c-15.2,2.4-20-0.8-26.4-4.8c-10.4-6.4-20.8-10.4-45.6-4   c-15.2,2.4-20-0.8-26.4-4.8c-9.6-5.6-18.4-9.6-37.6-5.6v-46.4c0-4,4-7.2,8-7.2l334.4,41.6c3.2,0.8,4.8,2.4,4.8,5.6V231.692z" transform="matrix(0.09362983336575603 -0.02621635297080115 0.02621635297080115 0.09362983336575603 197.23248489520546 216.1668382082796)" id="L1_0" fill="#f5685d"/><g transform="matrix(0.11264555156230927 0 0 0.11264555156230927 123.00337888300419 -16.99662111699581)" id="L1_1"><path d="M195.2,0C87.2,0,0,87.2,0,195.2s88,195.2,195.2,195.2s195.2-88,195.2-195.2S303.2,0,195.2,0z M195.2,374.4    C96,374.4,16,294.4,16,195.2S96,16,195.2,16s179.2,80,179.2,179.2S294.4,374.4,195.2,374.4z" fill="#4caf50"/><path d="M195.2,120.8c-40.8,0-74.4,33.6-74.4,74.4s33.6,74.4,74.4,74.4s74.4-33.6,74.4-74.4S236,120.8,195.2,120.8z M195.2,253.6    c-32,0-58.4-26.4-58.4-58.4s26.4-58.4,58.4-58.4s58.4,26.4,58.4,58.4S227.2,253.6,195.2,253.6z" fill="#4caf50"/><path d="M175.2,40c-3.2-3.2-8.8-2.4-11.2,0.8l-20,24c-3.2,3.2-2.4,8.8,0.8,11.2c1.6,2.4,3.2,2.4,4.8,2.4c2.4,0,4.8-0.8,6.4-3.2    l20-24C179.2,48,178.4,42.4,175.2,40z" fill="#4caf50"/><path d="M92,102.4c-4.8,0-8,3.2-8,8V144c0,4.8,3.2,8,8,8c4.8,0,8-3.2,8-8v-33.6C100,106.4,96,102.4,92,102.4z" fill="#4caf50"/><path d="M96,248l-25.6-20.8c-3.2-2.4-8.8-2.4-11.2,0.8s-2.4,8.8,0.8,11.2l25.6,21.6c1.6,1.6,3.2,1.6,4.8,1.6    c2.4,0,4.8-0.8,6.4-3.2C99.2,256,99.2,250.4,96,248z" fill="#4caf50"/><path d="M301.6,116.8l-19.2-40c-1.6-4-6.4-5.6-10.4-4c-4,1.6-5.6,6.4-4,10.4l19.2,40c1.6,3.2,4,4.8,7.2,4.8c0.8,0,2.4,0,3.2-0.8    C302.4,125.6,304,120.8,301.6,116.8z" fill="#4caf50"/><path d="M320.8,227.2c-4-1.6-8.8,0.8-9.6,5.6l-12,40c-1.6,4,0.8,8.8,5.6,9.6c0.8,0,1.6,0,2.4,0c3.2,0,6.4-2.4,8-5.6l12-40    C328,232.8,325.6,228,320.8,227.2z" fill="#4caf50"/><path d="M192,296.8c-4.8,0-8,3.2-8,8v40c0,4.8,3.2,8,8,8c4.8,0,8-3.2,8-8v-40C200,300.8,196.8,296.8,192,296.8z" fill="#4caf50"/><path d="M290.4,308l-33.6-20c-4-2.4-8.8-0.8-11.2,2.4c-2.4,4-0.8,8.8,2.4,11.2l33.6,20c1.6,0.8,2.4,0.8,4,0.8c2.4,0,5.6-1.6,7.2-4    C296,315.2,294.4,310.4,290.4,308z" fill="#4caf50"/><path d="M131.2,280c-4.8,0-8,3.2-8,8v24c0,4.8,3.2,8,8,8s8-3.2,8-8v-24C139.2,283.2,136,280,131.2,280z" fill="#4caf50"/><path d="M339.2,145.6h-24c-4,0-8,4-8,8c0,4.8,3.2,8,8,8h24c4.8,0,8-3.2,8-8C347.2,148.8,344,145.6,339.2,145.6z" fill="#4caf50"/><circle cx="217" cy="75" r="14" fill="#4caf50"/><circle cx="65" cy="180" r="14" fill="#4caf50"/><circle cx="238" cy="335" r="14" fill="#4caf50"/><circle cx="312" cy="195" r="14" fill="#4caf50"/></g><path d="M216,88.4c-3.2,0-7.2,0-10.4,0C89.6,91.6,0,143.6,0,208.4c0,27.2,16,48.8,37.6,52l37.6,78.4c1.6,2.4,4,4.8,7.2,4.8H216    h133.6c3.2,0,5.6-1.6,7.2-4.8l37.6-78.4c20.8-3.2,37.6-25.6,37.6-52C432,141.2,336.8,88.4,216,88.4z M341.6,128.4    c-4,0.8-8.8,3.2-13.6,6.4c-7.2-7.2-14.4-12.8-20.8-18.4C320,119.6,331.2,123.6,341.6,128.4z M172.8,107.6    c-7.2,4.8-15.2,12-23.2,20c-12-4-24-6.4-33.6-8.8C133.6,113.2,152.8,109.2,172.8,107.6z M86.4,129.2c5.6,0.8,26.4,4,51.2,11.2    c-6.4,8-12,16.8-16,27.2c-1.6,4,0,8.8,4,10.4c0.8,0.8,2.4,0.8,3.2,0.8c3.2,0,6.4-1.6,7.2-4.8c4.8-10.4,11.2-20,17.6-28    c24.8,8.8,52,20.8,71.2,37.6c1.6,1.6,3.2,2.4,5.6,2.4c2.4,0,4-0.8,5.6-2.4c3.2-3.2,2.4-8-0.8-11.2c-19.2-16.8-44.8-29.6-69.6-38.4    c17.6-16.8,36-25.6,40.8-28c3.2,0,5.6,0,8.8,0c16.8,0,33.6,0.8,49.6,3.2c4.8,3.2,28,16,48.8,35.2c-8,5.6-15.2,13.6-21.6,23.2    c-2.4,4-1.6,8.8,2.4,11.2c1.6,0.8,3.2,1.6,4.8,1.6c2.4,0,4.8-1.6,6.4-3.2c5.6-8.8,12.8-15.2,20-20c7.2,8,12.8,16.8,16.8,25.6    c1.6,3.2,4,4.8,7.2,4.8c0.8,0,2.4,0,3.2-0.8c4-1.6,5.6-6.4,4-10.4c-4.8-9.6-10.4-19.2-17.6-28c10.4-5.6,19.2-8,23.2-8.8    c29.6,16.8,48.8,38.4,52.8,62.4H16.8C20.8,172.4,47.2,146.8,86.4,129.2z M346.4,216.4c-2.4,16-13.6,28.8-25.6,28.8    s-24-12-26.4-28.8H346.4z M276.8,216.4c-2.4,16-13.6,28.8-25.6,28.8s-24-12-26.4-28.8H276.8z M207.2,216.4    c-2.4,16-13.6,28.8-25.6,28.8s-23.2-12-26.4-28.8H207.2z M137.6,216.4c-2.4,16-13.6,28.8-25.6,28.8s-23.2-12-26.4-28.8H137.6z     M16.8,216.4h52c-2.4,16-13.6,28.8-25.6,28.8S19.2,233.2,16.8,216.4z M344.8,328.4H216H87.2l-6.4-13.6h269.6L344.8,328.4z     M358.4,298.8H73.6l-19.2-40c9.6-3.2,17.6-10.4,23.2-20c8,13.6,20,22.4,34.4,22.4s27.2-8.8,34.4-22.4c8,13.6,20,22.4,34.4,22.4    c14.4,0,27.2-8.8,34.4-22.4c8,13.6,20,22.4,34.4,22.4c14.4,0,27.2-8.8,34.4-22.4c8,13.6,20,22.4,34.4,22.4    c14.4,0,27.2-8.8,34.4-22.4c5.6,9.6,13.6,16.8,23.2,20L358.4,298.8z M389.6,245.2c-12.8,0-23.2-12-25.6-28.8h52    C412.8,233.2,402.4,245.2,389.6,245.2z" transform="matrix(0.0837073625452773 0.04384671324720326 -0.04384671324720326 0.0837073625452773 94.39010118212748 143.44832105933568)" id="L1_2" fill="#34b9f5"/><path d="M389.451,354.101h-12v-0.8v-156c16.8-4.8,28.8-20,28.8-38.4c0-22.4-18.4-40.8-40.8-40.8h-129.6c4-5.6,6.4-12.8,6.4-20.8    c0-17.6-12-32-28.8-36c0.8-11.2,6.4-33.6,37.6-45.6c4-1.6,6.4-6.4,4.8-10.4c-1.6-4-6.4-6.4-10.4-4.8c-36,13.6-47.2,42.4-48,60.8    c-16,4-28.8,18.4-28.8,36c0,8,2.4,14.4,6.4,20.8h-129.6c-22.4,0-40.8,18.4-40.8,40.8c0,18.4,12,33.6,28.8,38.4v156v0.8h-11.2    c-9.6,0-16.8,8-16.8,16.8v23.2c0,9.6,8,16.8,16.8,16.8h367.2c9.6,0,16.8-8,16.8-16.8v-23.2    C406.251,361.301,398.251,354.101,389.451,354.101z M205.451,76.501c11.2,0,20.8,9.6,20.8,20.8c0,11.2-9.6,20.8-20.8,20.8    s-20.8-9.6-20.8-20.8C184.651,86.101,194.251,76.501,205.451,76.501z M20.651,158.901c0-13.6,11.2-24.8,24.8-24.8h320    c13.6,0,24.8,11.2,24.8,24.8c0,13.6-11.2,24.8-24.8,24.8c-8.8,0-16.8-4.8-21.6-12.8c-1.6-2.4-4-4-6.4-4c-2.4,0-5.6,0.8-7.2,3.2    c-4,5.6-9.6,8.8-16,8.8c-4.8,0-9.6-1.6-13.6-5.6c-2.4-1.6-4.8-2.4-8-1.6l-1.6,0.8c-4,1.6-6.4,5.6-5.6,9.6c0.8,1.6,0.8,4,0.8,4.8    c0,10.4-8.8,19.2-19.2,19.2s-19.2-8.8-19.2-19.2c0-3.2-1.6-6.4-4.8-8c-0.8-0.8-2.4-0.8-3.2-0.8c-2.4,0-4,0.8-5.6,2.4    c-7.2,7.2-19.2,8-27.2,0.8c-1.6-1.6-4.8-2.4-7.2-1.6c-2.4,0.8-4.8,2.4-5.6,4.8c-3.2,7.2-10.4,12-17.6,12c-5.6,0-11.2-2.4-15.2-7.2    c-1.6-2.4-4-3.2-7.2-3.2c-2.4,0-4.8,1.6-6.4,4c-3.2,6.4-9.6,11.2-17.6,11.2c-10.4,0-19.2-8-19.2-18.4c0-3.2-1.6-5.6-4-6.4    c-2.4-1.6-5.6-1.6-8,0c-8,4.8-16.8,3.2-23.2-2.4c-1.6-1.6-4-2.4-6.4-2.4c-2.4,0-4,1.6-5.6,3.2c-4.8,6.4-12,9.6-19.2,9.6    C31.851,182.901,20.651,172.501,20.651,158.901z M337.451,293.301c-12-4.8-28-9.6-49.6,0.8c-13.6,5.6-23.2,2.4-34.4-1.6    c-13.6-4.8-29.6-9.6-51.2,1.6c-13.6,5.6-23.2,2.4-33.6-1.6c-13.6-4.8-29.6-9.6-51.2,1.6c-13.6,5.6-23.2,2.4-33.6-1.6    c-9.6-3.2-20-6.4-33.6-4.8v-32c11.2-3.2,19.2,0,28.8,3.2c7.2,2.4,15.2,5.6,24.8,5.6c5.6,0,12-0.8,19.2-4c16-8.8,27.2-4.8,40-0.8    c7.2,2.4,16,4.8,24.8,4.8c6.4,0,12.8-0.8,20-4c16-8.8,27.2-4.8,40-0.8c7.2,2.4,16,4.8,24.8,4.8c6.4,0,12.8-0.8,20-4    c16-8.8,27.2-4.8,40-0.8c7.2,2.4,16,4.8,24.8,4.8c0.8,0,1.6,0,1.6,0v32.8C351.851,298.101,344.651,295.701,337.451,293.301z     M359.051,313.301v40c0,0.8-0.8,0.8-0.8,0.8h-307.2c-0.8,0-0.8-0.8-0.8-0.8v-48c10.4-2.4,18.4,0,28,3.2c7.2,2.4,16,4.8,24.8,4.8    c6.4,0,12.8-0.8,20-4c16-8.8,27.2-4.8,40-0.8c7.2,2.4,16,4.8,24.8,4.8c6.4,0,12.8-0.8,20-4c16-8.8,27.2-4.8,40-0.8    c7.2,2.4,16,4.8,24.8,4.8c6.4,0,12.8-0.8,20-4c16-8.8,27.2-4.8,40-0.8c7.2,2.4,16,4.8,24.8,4.8    C358.251,313.301,359.051,313.301,359.051,313.301z M339.051,244.501c-13.6-4.8-29.6-9.6-51.2,1.6c-13.6,5.6-23.2,2.4-33.6-1.6    c-13.6-4.8-29.6-9.6-51.2,1.6c-13.6,5.6-23.2,2.4-33.6-1.6c-13.6-4.8-29.6-9.6-51.2,1.6c-12.8,5.6-22.4,2.4-33.6-1.6    c-9.6-3.2-20.8-7.2-34.4-4.8v-40.8c8-0.8,15.2-4,21.6-9.6c8,4.8,16.8,6.4,25.6,4c4.8,13.6,17.6,23.2,33.6,23.2    c10.4,0,19.2-4,25.6-11.2c5.6,4,12.8,6.4,20,6.4c11.2,0,20.8-4.8,27.2-12.8c9.6,4.8,20.8,4.8,30.4,0.8    c5.6,12.8,18.4,22.4,32.8,22.4c17.6,0,32-12.8,35.2-29.6c11.2,4,24,1.6,33.6-5.6c6.4,7.2,15.2,11.2,24.8,12v49.6    C352.651,249.301,346.251,246.901,339.051,244.501z M390.251,394.901c0,0.8-0.8,0.8-0.8,0.8h-367.2c-0.8,0-0.8-0.8-0.8-0.8v-23.2    c0-0.8,0.8-0.8,0.8-0.8h28.8h308.8h28.8c0.8-0.8,1.6,0,1.6,0.8V394.901z" transform="matrix(0.10105962452162234 -0.03833296155365317 0.03833296155365317 0.10105962452162234 303.379014401886 312.09254056500197)" id="L1_3" fill="#ec4a81"/><path d="M364.861,157.292c-34.4-18.4-88-47.2-140.8-76.8c-2.4-19.2-15.2-35.2-33.6-39.2c3.2-8.8,11.2-22.4,29.6-23.2   c4.8,0,8-4,7.2-8c0-4.8-4-8-8-7.2c-27.2,1.6-40.8,23.2-44.8,39.2c-8,1.6-15.2,4.8-20.8,9.6c-36,16.8-126.4,57.6-140,64   c-6.4,3.2-13.6,10.4-13.6,18.4v187.2c-0.8,7.2,6.4,13.6,15.2,14.4l348,41.6h0.8c8.8,0,16-7.2,16-16v-187.2   C380.061,165.292,372.061,161.292,364.861,157.292z M180.861,55.692c14.4,0,27.2,12,27.2,27.2s-12.8,26.4-27.2,26.4   s-27.2-12-27.2-27.2S165.661,55.692,180.861,55.692z M139.261,73.292c-0.8,3.2-1.6,6.4-1.6,9.6c0,24,19.2,43.2,43.2,43.2   c18.4-0.8,34.4-12.8,40-28.8c32,18.4,72,40,100,56l-280-33.6L139.261,73.292z M357.661,361.292l-336.8-41.6c-3.2,0-4.8-2.4-4.8-4.8   v-51.2c17.6-4,23.2-0.8,29.6,3.2c5.6,3.2,12.8,8,25.6,8c3.2,0,7.2,0,12-0.8c0,0,0,0,0.8,0c0,0,0,0,0.8,0   c20.8-5.6,26.4-2.4,33.6,1.6c5.6,3.2,12.8,8,25.6,8c3.2,0,7.2,0,12-0.8c0,0,0,0,0.8,0c0,0,0,0,0.8,0c20.8-5.6,26.4-2.4,33.6,1.6   c5.6,3.2,12.8,8,25.6,8c3.2,0,7.2,0,12-0.8c0,0,0,0,0.8,0c0,0,0,0,0.8,0c20.8-5.6,26.4-2.4,33.6,1.6c5.6,3.2,12.8,8,25.6,8   c3.2,0,7.2,0,12-0.8c0,0,0,0,0.8,0c0,0,0,0,0.8,0c20.8-5.6,26.4-2.4,33.6,1.6c5.6,3.2,12.8,8,25.6,8l0.8,46.4   C363.261,359.692,360.861,362.092,357.661,361.292z M363.261,292.492c-11.2,0.8-15.2-1.6-20.8-5.6c-10.4-6.4-20.8-10.4-45.6-4   c-15.2,2.4-20-0.8-26.4-4.8c-10.4-6.4-20.8-10.4-45.6-4c-15.2,2.4-20-0.8-26.4-4.8c-10.4-6.4-20.8-10.4-45.6-4   c-15.2,2.4-20-0.8-26.4-4.8c-10.4-6.4-20.8-10.4-45.6-4c-15.2,2.4-20-0.8-26.4-4.8c-9.6-5.6-18.4-9.6-37.6-5.6v-44   c17.6-4,23.2-0.8,29.6,3.2c5.6,3.2,12.8,8,25.6,8c3.2,0,7.2,0,12-0.8c0,0,0,0,0.8,0c0,0,0,0,0.8,0c20.8-5.6,26.4-2.4,33.6,1.6   c5.6,3.2,12.8,8,25.6,8c3.2,0,7.2,0,12-0.8c0,0,0,0,0.8,0c0,0,0,0,0.8,0c20.8-5.6,26.4-2.4,33.6,1.6c5.6,3.2,12.8,8,25.6,8   c3.2,0,7.2,0,12-0.8c0,0,0,0,0.8,0c0,0,0,0,0.8,0c20.8-5.6,26.4-2.4,33.6,1.6c5.6,3.2,12.8,8,25.6,8c3.2,0,7.2,0,12-0.8   c0,0,0,0,0.8,0c0,0,0,0,0.8,0c20.8-5.6,26.4-2.4,33.6,1.6c5.6,3.2,12.8,8,25.6,8V292.492z M363.261,231.692   c-11.2,0.8-16-1.6-21.6-5.6c-10.4-6.4-20.8-10.4-45.6-4c-15.2,2.4-20-0.8-26.4-4.8c-10.4-6.4-20.8-10.4-45.6-4   c-15.2,2.4-20-0.8-26.4-4.8c-10.4-6.4-20.8-10.4-45.6-4c-15.2,2.4-20-0.8-26.4-4.8c-10.4-6.4-20.8-10.4-45.6-4   c-15.2,2.4-20-0.8-26.4-4.8c-9.6-5.6-18.4-9.6-37.6-5.6v-46.4c0-4,4-7.2,8-7.2l334.4,41.6c3.2,0.8,4.8,2.4,4.8,5.6V231.692z" transform="matrix(0.0711586744001048 0.01872596676399598 -0.01872596676399598 0.0711586744001048 230.02720370936223 69.89039670107778)" id="L1_4"/></defs><g fi:class="KUsePattern"><pattern id="pattern_L1_0" width="350" height="350" patternUnits="userSpaceOnUse"><use xlink:href="#L1_0" x="-350" y="-350"/><use xlink:href="#L1_0" x="0" y="-350"/><use xlink:href="#L1_0" x="350" y="-350"/><use xlink:href="#L1_0" x="-350" y="0"/><use xlink:href="#L1_0" x="0" y="0"/><use xlink:href="#L1_0" x="350" y="0"/><use xlink:href="#L1_0" x="-350" y="350"/><use xlink:href="#L1_0" x="0" y="350"/><use xlink:href="#L1_0" x="350" y="350"/></pattern><rect x="0" y="0" width="100%" height="100%" fill="url(#pattern_L1_0)"/></g><g fi:class="KUsePattern"><pattern id="pattern_L1_1" width="350" height="350" patternUnits="userSpaceOnUse"><use xlink:href="#L1_1" x="-350" y="-350"/><use xlink:href="#L1_1" x="0" y="-350"/><use xlink:href="#L1_1" x="350" y="-350"/><use xlink:href="#L1_1" x="-350" y="0"/><use xlink:href="#L1_1" x="0" y="0"/><use xlink:href="#L1_1" x="350" y="0"/><use xlink:href="#L1_1" x="-350" y="350"/><use xlink:href="#L1_1" x="0" y="350"/><use xlink:href="#L1_1" x="350" y="350"/></pattern><rect x="0" y="0" width="100%" height="100%" fill="url(#pattern_L1_1)"/></g><g fi:class="KUsePattern"><pattern id="pattern_L1_2" width="350" height="350" patternUnits="userSpaceOnUse"><use xlink:href="#L1_2" x="-350" y="-350"/><use xlink:href="#L1_2" x="0" y="-350"/><use xlink:href="#L1_2" x="350" y="-350"/><use xlink:href="#L1_2" x="-350" y="0"/><use xlink:href="#L1_2" x="0" y="0"/><use xlink:href="#L1_2" x="350" y="0"/><use xlink:href="#L1_2" x="-350" y="350"/><use xlink:href="#L1_2" x="0" y="350"/><use xlink:href="#L1_2" x="350" y="350"/></pattern><rect x="0" y="0" width="100%" height="100%" fill="url(#pattern_L1_2)"/></g><g fi:class="KUsePattern"><pattern id="pattern_L1_3" width="350" height="350" patternUnits="userSpaceOnUse"><use xlink:href="#L1_3" x="-350" y="-350"/><use xlink:href="#L1_3" x="0" y="-350"/><use xlink:href="#L1_3" x="350" y="-350"/><use xlink:href="#L1_3" x="-350" y="0"/><use xlink:href="#L1_3" x="0" y="0"/><use xlink:href="#L1_3" x="350" y="0"/><use xlink:href="#L1_3" x="-350" y="350"/><use xlink:href="#L1_3" x="0" y="350"/><use xlink:href="#L1_3" x="350" y="350"/></pattern><rect x="0" y="0" width="100%" height="100%" fill="url(#pattern_L1_3)"/></g><g fi:class="KUsePattern"><pattern id="pattern_L1_4" width="350" height="350" patternUnits="userSpaceOnUse"><use xlink:href="#L1_4" x="-350" y="-350"/><use xlink:href="#L1_4" x="0" y="-350"/><use xlink:href="#L1_4" x="350" y="-350"/><use xlink:href="#L1_4" x="-350" y="0"/><use xlink:href="#L1_4" x="0" y="0"/><use xlink:href="#L1_4" x="350" y="0"/><use xlink:href="#L1_4" x="-350" y="350"/><use xlink:href="#L1_4" x="0" y="350"/><use xlink:href="#L1_4" x="350" y="350"/></pattern><rect x="0" y="0" width="100%" height="100%" fill="url(#pattern_L1_4)"/></g></svg>